Coordinates
version=1
nRows=30
nColumns=38
inDegrees=no

Units are S.I. units (second, meters, Newtons, ...)
If the header above contains a line with 'inDegrees', this indicates whether rotational values are in degrees (yes) or radians (no).

endheader
time	pelvis_tilt	pelvis_list	pelvis_rotation	pelvis_tx	pelvis_ty	pelvis_tz	hip_flexion_r	hip_adduction_r	hip_rotation_r	knee_angle_r	ankle_angle_r	subtalar_angle_r	mtp_angle_r	hip_flexion_l	hip_adduction_l	hip_rotation_l	knee_angle_l	ankle_angle_l	subtalar_angle_l	mtp_angle_l	lumbar_extension	lumbar_bending	lumbar_rotation	arm_flex_r	arm_add_r	arm_rot_r	elbow_flex_r	pro_sup_r	wrist_flex_r	wrist_dev_r	arm_flex_l	arm_add_l	arm_rot_l	elbow_flex_l	pro_sup_l	wrist_flex_l	wrist_dev_l
0.56	-3.07709	0.973888	1.46842	0.658009	1.23976	1.01156	0.965603	-0.0113874	-0.0679553	0.461631	-0.17152	0	0	0.506629	-0.0576595	-0.106261	0.217398	-0.0790974	0	0	0.613039	0.00989857	-0.0801007	-0.156062	-0.229651	0.620351	0.286967	1.2098	0	0	-0.359587	-0.0713167	-0.750887	0.491878	1.17634	0	0
0.57	-3.08391	0.966492	1.48772	0.658015	1.22881	1.01044	0.970123	-0.0213044	-0.0761448	0.394537	-0.184455	0	0	0.528644	-0.0460999	-0.117514	0.246322	-0.0762031	0	0	0.621346	-0.000477729	-0.0877303	-0.160515	-0.225579	0.619457	0.279104	1.20343	0	0	-0.359653	-0.0757566	-0.744822	0.490435	1.16751	0	0
0.58	-3.08227	0.963971	1.49421	0.657723	1.21772	1.00857	0.969513	-0.0232982	-0.0835801	0.329762	-0.196952	0	0	0.521321	-0.0428367	-0.117681	0.247627	-0.0705073	0	0	0.620688	-0.00363055	-0.0948856	-0.163013	-0.225631	0.621778	0.277013	1.20093	0	0	-0.362955	-0.0760073	-0.740181	0.500711	1.15801	0	0
0.59	-3.08047	0.962889	1.50076	0.657414	1.20653	1.00656	0.967451	-0.0251913	-0.091002	0.267303	-0.208697	0	0	0.51065	-0.0409667	-0.113887	0.24682	-0.0642444	0	0	0.617525	-0.00675744	-0.102354	-0.164719	-0.226084	0.625575	0.275618	1.20059	0	0	-0.365893	-0.0760031	-0.736579	0.512131	1.14789	0	0
0.6	-3.07905	0.962382	1.50776	0.657076	1.1952	1.00446	0.964959	-0.0273411	-0.0977103	0.208008	-0.22005	0	0	0.499646	-0.0390492	-0.109458	0.246804	-0.0585076	0	0	0.613588	-0.0099069	-0.109712	-0.166267	-0.226667	0.62822	0.274394	1.19991	0	0	-0.368244	-0.0763678	-0.73283	0.522747	1.13791	0	0
0.61	-3.07805	0.961879	1.51509	0.656652	1.18373	1.00228	0.962822	-0.029634	-0.103919	0.152872	-0.231354	0	0	0.488975	-0.0372691	-0.104734	0.247595	-0.0535796	0	0	0.609853	-0.012998	-0.116619	-0.168147	-0.227315	0.629345	0.27344	1.1985	0	0	-0.37059	-0.0772801	-0.727918	0.532836	1.12801	0	0
0.62	-3.07699	0.961233	1.52207	0.656082	1.17209	1	0.961286	-0.0315348	-0.107905	0.103092	-0.239876	0	0	0.478629	-0.036376	-0.100334	0.249076	-0.0500803	0	0	0.606844	-0.015632	-0.12258	-0.170716	-0.227923	0.630413	0.272321	1.1982	0	0	-0.372435	-0.0784518	-0.723598	0.542002	1.11913	0	0
0.63	-3.06872	0.969736	1.51513	0.655062	1.15985	0.997643	0.950409	-0.024571	-0.110942	0.0574717	-0.251202	0	0	0.428148	-0.0432164	-0.101504	0.234232	-0.0397176	0	0	0.591054	-0.00967131	-0.125992	-0.170281	-0.231817	0.634026	0.274515	1.19962	0	0	-0.375738	-0.0773266	-0.715619	0.557635	1.10367	0	0
0.64	-3.06891	0.97043	1.52085	0.654215	1.14776	0.995492	0.949119	-0.0251298	-0.113235	0.021406	-0.255348	0	0	0.416165	-0.0432555	-0.0992478	0.236637	-0.0348943	0	0	0.58764	-0.0106612	-0.129529	-0.172628	-0.232558	0.634432	0.271789	1.19921	0	0	-0.376341	-0.0789805	-0.711023	0.562855	1.09433	0	0
0.65	-3.07003	0.969779	1.52666	0.653249	1.13556	0.993285	0.950826	-0.0254971	-0.11423	0	-0.256459	0	0	0.40618	-0.0431718	-0.0959441	0.240579	-0.0314287	0	0	0.586436	-0.0114606	-0.132494	-0.175357	-0.233422	0.634324	0.26861	1.19848	0	0	-0.377319	-0.0806247	-0.706905	0.566854	1.08608	0	0
0.66	-3.07141	0.968989	1.53186	0.652202	1.12322	0.991135	0.955323	-0.0256048	-0.114785	0	-0.253599	0	0	0.396915	-0.043251	-0.0915083	0.245101	-0.0290616	0	0	0.58605	-0.0116049	-0.134555	-0.178253	-0.23455	0.634296	0.264853	1.19799	0	0	-0.378175	-0.0822914	-0.702797	0.569463	1.07907	0	0
0.67	-3.07201	0.968025	1.53615	0.651136	1.11072	0.989093	0.961446	-0.0254762	-0.113938	0	-0.245439	0	0	0.389043	-0.0439109	-0.0857603	0.25116	-0.0264226	0	0	0.586507	-0.0107975	-0.136495	-0.181125	-0.235949	0.634799	0.260079	1.19697	0	0	-0.379775	-0.0849979	-0.693158	0.570788	1.0671	0	0
0.68	-3.07239	0.967099	1.53912	0.650016	1.09801	0.987241	0.968483	-0.0244618	-0.10992	0	-0.240636	0	0	0.381665	-0.0451946	-0.0848402	0.260019	-0.0259981	0	0	0.587638	-0.00872275	-0.137401	-0.184493	-0.237952	0.634711	0.255417	1.19583	0	0	-0.380587	-0.086916	-0.686086	0.569878	1.05881	0	0
0.69	-3.0727	0.965729	1.54109	0.648865	1.08513	0.985552	0.977585	-0.0228011	-0.103847	0.0200021	-0.235808	0	0	0.374944	-0.0471668	-0.087058	0.271641	-0.0271073	0	0	0.589861	-0.00557696	-0.137751	-0.187952	-0.240543	0.633831	0.250502	1.19332	0	0	-0.381318	-0.0888694	-0.67782	0.566584	1.04911	0	0
0.7	-3.07217	0.965086	1.54189	0.647615	1.07187	0.984138	0.986158	-0.0202762	-0.0984219	0.049408	-0.229336	0	0	0.368063	-0.0496705	-0.087983	0.28369	-0.0295436	0	0	0.592215	-0.00167731	-0.137891	-0.191966	-0.243575	0.632097	0.245834	1.18891	0	0	-0.382592	-0.0912333	-0.66735	0.561769	1.0377	0	0
0.71	-3.07053	0.965147	1.54236	0.646335	1.05824	0.982961	0.992733	-0.0176271	-0.0933649	0.0827998	-0.222219	0	0	0.361384	-0.052257	-0.0864161	0.29759	-0.0323461	0	0	0.594604	0.00218795	-0.13893	-0.196487	-0.246805	0.630871	0.24133	1.18506	0	0	-0.384625	-0.0929878	-0.658584	0.556984	1.02765	0	0
0.72	-3.06785	0.965538	1.5429	0.645068	1.04417	0.981964	0.996629	-0.0149359	-0.0878535	0.117159	-0.213724	0	0	0.355186	-0.0549883	-0.0821924	0.313178	-0.0362435	0	0	0.597741	0.00574702	-0.140991	-0.201919	-0.250168	0.630434	0.236945	1.18232	0	0	-0.38762	-0.0943283	-0.650935	0.552088	1.01881	0	0
0.73	-3.06381	0.966834	1.54319	0.643816	1.02953	0.981198	0.99645	-0.0116186	-0.0829916	0.149725	-0.205064	0	0	0.348631	-0.0581447	-0.07561	0.330483	-0.0424691	0	0	0.60138	0.00924168	-0.143688	-0.208643	-0.253659	0.629303	0.232646	1.17952	0	0	-0.391108	-0.095444	-0.644705	0.546279	1.01123	0	0
0.74	-3.05738	0.96797	1.54301	0.642626	1.01454	0.980556	0.99346	-0.00754961	-0.0805806	0.177589	-0.199152	0	0	0.343977	-0.0626066	-0.0673444	0.350517	-0.0517197	0	0	0.606182	0.0129217	-0.14777	-0.216686	-0.257392	0.625438	0.228975	1.17483	0	0	-0.394522	-0.0961419	-0.640539	0.539658	1.00536	0	0
0.75	-3.04927	0.968024	1.54193	0.641459	0.999312	0.980076	0.989145	-0.00219376	-0.079787	0.19632	-0.203418	0	0	0.342594	-0.0677508	-0.058032	0.375278	-0.0623411	0	0	0.613394	0.0173448	-0.151347	-0.226564	-0.261299	0.619689	0.225695	1.1692	0	0	-0.397225	-0.0967609	-0.636922	0.53128	1.00191	0	0
0.76	-3.04012	0.965272	1.53911	0.640207	0.984145	0.979743	0.986542	0.0040586	-0.0777373	0.205341	-0.222843	0	0	0.346779	-0.0736758	-0.0445824	0.403149	-0.0758571	0	0	0.624538	0.0232972	-0.153045	-0.23838	-0.265511	0.610539	0.223601	1.16105	0	0	-0.398813	-0.0972598	-0.633487	0.520843	1.0002	0	0
0.77	-3.03172	0.959612	1.53474	0.638783	0.969241	0.979608	0.986585	0.01001	-0.0723449	0.208973	-0.252827	0	0	0.356991	-0.0795467	-0.0283867	0.435014	-0.0948064	0	0	0.638937	0.0305993	-0.151662	-0.251223	-0.269812	0.59912	0.222445	1.15132	0	0	-0.399516	-0.0971944	-0.630581	0.509759	0.999943	0	0
0.78	-3.02472	0.952956	1.52869	0.637174	0.954634	0.979832	0.987663	0.0160062	-0.0639224	0.214782	-0.277393	0	0	0.371252	-0.0850843	-0.0134666	0.472533	-0.118417	0	0	0.653207	0.0392414	-0.147518	-0.263138	-0.273965	0.586351	0.221388	1.14011	0	0	-0.399163	-0.0961971	-0.628748	0.498679	0.999735	0	0
0.79	-3.01915	0.947226	1.52065	0.635359	0.940284	0.980489	0.988379	0.0230721	-0.0513265	0.227284	-0.286043	0	0	0.387508	-0.0903531	-0.00054744	0.514992	-0.143396	0	0	0.664249	0.0491631	-0.141361	-0.27224	-0.277816	0.574534	0.219908	1.12872	0	0	-0.398092	-0.0940847	-0.628271	0.488799	0.998534	0	0
0.8	-3.01489	0.943343	1.51075	0.633325	0.926131	0.981513	0.988716	0.031711	-0.0342921	0.248441	-0.279969	0	0	0.404781	-0.0954888	0.0109433	0.561691	-0.171923	0	0	0.671023	0.0598179	-0.133546	-0.278381	-0.281519	0.565146	0.218363	1.11769	0	0	-0.397236	-0.0910167	-0.629295	0.481826	0.99642	0	0
0.81	-3.01199	0.941759	1.49983	0.631168	0.912223	0.982802	0.987954	0.0411142	-0.0143052	0.275047	-0.265804	0	0	0.423027	-0.100121	0.021891	0.613156	-0.204699	0	0	0.673097	0.0703499	-0.124614	-0.281188	-0.285238	0.559527	0.216736	1.1081	0	0	-0.396548	-0.0873356	-0.631828	0.478053	0.993605	0	0
0.82	-3.00801	0.942332	1.48765	0.629074	0.898748	0.984138	0.985018	0.05074	0.00304398	0.301854	-0.250737	0	0	0.44666	-0.105576	0.0264232	0.683334	-0.23808	0	0	0.670355	0.0808223	-0.116547	-0.280465	-0.289584	0.557595	0.215894	1.1	0	0	-0.395738	-0.0831656	-0.635205	0.47799	0.990694	0	0
0.83	-3.00168	0.944125	1.475	0.627124	0.885602	0.985499	0.979183	0.0598603	0.012015	0.324439	-0.237005	0	0	0.468604	-0.111899	0.036403	0.744027	-0.274542	0	0	0.665223	0.090821	-0.110879	-0.277127	-0.294261	0.560087	0.214976	1.09428	0	0	-0.39449	-0.079167	-0.638782	0.479478	0.988746	0	0
0.84	-2.99038	0.94759	1.46001	0.625388	0.872706	0.986816	0.968426	0.0694988	0.0117547	0.339394	-0.223487	0	0	0.493135	-0.120174	0.0451588	0.81119	-0.313768	0	0	0.656881	0.101554	-0.109256	-0.27071	-0.299862	0.570982	0.213798	1.09245	0	0	-0.392896	-0.0748203	-0.643387	0.482825	0.988838	0	0
0.85	-2.97379	0.952335	1.44324	0.623894	0.859963	0.988094	0.952642	0.0797099	0.00377495	0.346851	-0.210659	0	0	0.516358	-0.130292	0.0590583	0.871271	-0.355658	0	0	0.646115	0.112613	-0.112418	-0.261704	-0.306364	0.5888	0.212738	1.09253	0	0	-0.391258	-0.0703665	-0.648865	0.487598	0.991704	0	0
